# Blender 4.1.1
# www.blender.org
mtllib Male.mtl
o Torso
v 0.480617 3.553936 0.101409
v 0.473014 3.910016 0.017805
v 0.451859 3.604164 -0.306620
v 0.473014 3.938356 -0.234690
v -0.000000 3.646986 -0.422193
v -0.000000 4.119201 -0.234481
v -0.000000 3.481361 0.282690
v -0.000000 3.952187 0.086663
v 0.358124 3.090651 0.121243
v 0.358124 3.034983 -0.112267
v 0.000000 2.943367 -0.283067
v -0.000000 3.129604 0.270030
v 0.367883 2.837352 0.136065
v 0.367883 2.823378 -0.155608
v 0.000000 2.698460 -0.323905
v 0.000000 2.696886 0.282690
v 0.420264 2.498828 0.137542
v 0.454033 2.485611 -0.153617
v 0.000000 2.463745 -0.356198
v 0.000000 2.384130 0.276712
v 0.120571 4.096603 -0.199874
v 0.285685 3.464915 0.244821
v 0.247758 3.667941 -0.420632
v 0.104718 3.952187 0.052097
v 0.211255 3.087226 0.270030
v 0.176161 2.943367 -0.283067
v 0.182744 2.722865 0.282690
v 0.186483 2.712801 -0.323905
v 0.052630 2.392517 0.265283
v 0.084040 2.459812 -0.356198
v 0.512817 0.387149 -0.167735
v 0.512817 0.387149 -0.352321
v 0.336064 0.384482 -0.119270
v 0.336064 0.384482 -0.352321
v 0.462742 1.456282 0.040213
v 0.441711 1.456282 -0.230995
v 0.162005 1.406260 -0.230995
v 0.162005 1.406260 0.088568
v 0.483305 1.224381 0.003288
v 0.197889 1.174803 -0.342475
v 0.483305 1.219766 -0.342475
v 0.223373 1.179418 0.051643
v 0.481717 0.429987 -0.192728
v 0.481717 0.430156 -0.335220
v 0.366236 0.428245 -0.161064
v 0.366236 0.428413 -0.335220
v 0.494098 0.095870 -0.204517
v 0.504918 0.095870 -0.382373
v 0.346205 0.094128 -0.172852
v 0.352915 0.094128 -0.382373
v 0.483097 0.336661 -0.331852
v 0.367617 0.334918 -0.331852
v 0.483097 0.338514 -0.192728
v 0.367617 0.336771 -0.161064
v 0.573295 0.073453 0.274427
v 0.339693 0.071711 0.306092
v 0.571958 0.096406 0.297651
v 0.338357 0.094662 0.329316
v 0.533742 0.084662 0.034955
v 0.325124 0.082920 0.066620
v 0.336650 0.208083 0.086896
v 0.538317 0.209826 0.055231
v -0.480617 3.553936 0.101409
v -0.473014 3.910016 0.017805
v -0.451859 3.604164 -0.306620
v -0.473014 3.938356 -0.234690
v -0.358124 3.090651 0.121243
v -0.358124 3.034983 -0.112267
v -0.367883 2.837352 0.136065
v -0.367883 2.823378 -0.155608
v -0.420264 2.498828 0.137542
v -0.454033 2.485611 -0.153617
v -0.120571 4.096603 -0.199874
v -0.285685 3.464915 0.244821
v -0.247758 3.667941 -0.420632
v -0.104718 3.952187 0.052097
v -0.211255 3.087226 0.270030
v -0.176161 2.943367 -0.283067
v -0.182744 2.722865 0.282690
v -0.186483 2.712801 -0.323905
v -0.052630 2.392517 0.265283
v -0.084040 2.459812 -0.356198
v -0.512817 0.387149 -0.167735
v -0.512817 0.387149 -0.352321
v -0.336064 0.384482 -0.119270
v -0.336064 0.384482 -0.352321
v -0.462742 1.456282 0.040213
v -0.441711 1.456282 -0.230995
v -0.162005 1.406260 -0.230995
v -0.162005 1.406260 0.088568
v -0.483305 1.224381 0.003288
v -0.197889 1.174803 -0.342475
v -0.483305 1.219766 -0.342475
v -0.223373 1.179418 0.051643
v -0.481717 0.429987 -0.192728
v -0.481717 0.430156 -0.335220
v -0.366236 0.428245 -0.161064
v -0.366236 0.428413 -0.335220
v -0.494098 0.095870 -0.204517
v -0.504918 0.095870 -0.382373
v -0.346205 0.094128 -0.172852
v -0.352915 0.094128 -0.382373
v -0.483097 0.336661 -0.331852
v -0.367617 0.334918 -0.331852
v -0.483097 0.338514 -0.192728
v -0.367617 0.336771 -0.161064
v -0.573295 0.073453 0.274427
v -0.339693 0.071711 0.306092
v -0.571958 0.096406 0.297651
v -0.338357 0.094662 0.329316
v -0.533742 0.084662 0.034955
v -0.325124 0.082920 0.066620
v -0.336650 0.208083 0.086896
v -0.538317 0.209826 0.055231
v 0.101472 4.278587 -0.148826
v 0.000000 4.251125 -0.177349
v 0.157764 4.452572 -0.189560
v 0.000000 4.446939 -0.253942
v 0.000000 4.093936 0.284377
v 0.000000 4.439517 0.288960
v 0.086044 4.113420 0.233772
v 0.154226 4.184071 0.046028
v 0.145815 4.410212 0.198373
v 0.193317 4.445494 0.012710
v 0.000000 4.097501 0.100793
v 0.128501 4.588382 -0.155822
v 0.000000 4.632168 -0.184345
v 0.157023 4.612707 -0.009959
v 0.000000 4.692354 -0.009959
v 0.128501 4.548952 0.215019
v 0.000000 4.592738 0.243542
v 0.084812 4.213688 -0.154383
v 0.000000 4.186225 -0.182906
v 0.137566 4.129476 0.015444
v 0.000000 4.042907 0.070209
v 0.077862 4.086733 -0.207689
v 0.000000 4.059270 -0.236212
v 0.130616 3.986328 -0.003266
v 0.000000 3.899758 0.051499
v 0.026000 4.294728 0.330043
v 0.017496 4.315428 0.332203
v 0.048466 4.289901 0.253601
v 0.020150 4.409950 0.273453
v 0.000000 4.272838 0.274190
v 0.000000 4.425036 0.277474
v 0.000000 4.291447 0.344170
v 0.000000 4.319649 0.345858
v -0.101472 4.278587 -0.148826
v -0.157764 4.452572 -0.189560
v -0.086044 4.113420 0.233772
v -0.154226 4.184071 0.046028
v -0.145815 4.410212 0.198373
v -0.193317 4.445494 0.012710
v -0.128501 4.588382 -0.155822
v -0.157023 4.612707 -0.009959
v -0.128501 4.548952 0.215019
v -0.084812 4.213688 -0.154383
v -0.137566 4.129476 0.015444
v -0.077862 4.086733 -0.207689
v -0.130616 3.986328 -0.003266
v -0.026000 4.294728 0.330043
v -0.017496 4.315428 0.332203
v -0.048466 4.289901 0.253601
v -0.020150 4.409950 0.273453
v 0.625998 3.726099 -0.299003
v 0.334667 3.767916 -0.241571
v 0.682041 3.923084 -0.083684
v 0.429248 3.901284 -0.082837
v 0.650760 3.591695 -0.083686
v 0.423694 3.648862 -0.082839
v 0.652773 3.763398 0.064802
v 0.349475 3.763851 0.008747
v 1.914534 3.607213 -0.080149
v 1.920392 3.683981 -0.016402
v 1.910598 3.555622 -0.016403
v 1.915294 3.607099 0.081485
v 1.176447 3.707567 -0.242905
v 1.208966 3.577277 -0.103513
v 1.209032 3.687571 0.015956
v 1.185583 3.806138 -0.103512
v 1.302026 3.698276 -0.229428
v 1.341931 3.671627 0.042180
v 1.342209 3.569080 -0.091286
v 1.319705 3.805878 -0.091285
v 1.956529 3.607213 -0.071145
v 1.958345 3.663382 0.003476
v 1.953410 3.575593 0.038012
v 1.969335 3.614025 0.072204
v 2.414391 3.523171 -0.029870
v 2.412853 3.551603 0.042450
v 2.399717 3.518843 0.041723
v 2.400266 3.526215 0.123745
v 2.061245 3.562559 0.062043
v 2.072023 3.597244 0.107135
v 2.116925 3.628131 0.019314
v 2.121167 3.584706 -0.075560
v 2.261708 3.554268 0.045980
v 2.269567 3.606429 0.034022
v 2.220337 3.571780 0.131802
v 2.268826 3.564726 -0.066178
v 1.968934 3.542065 0.116778
v 1.982700 3.580142 0.133630
v 2.033131 3.534630 0.133997
v 2.044772 3.555542 0.157967
v 2.035909 3.497063 0.210055
v 2.034062 3.511417 0.211288
v 2.052075 3.496845 0.206288
v 2.052809 3.511247 0.206691
v 1.902335 3.664200 -0.003507
v 1.894613 3.614718 -0.067891
v 1.910074 3.619976 0.049531
v 1.897784 3.590316 0.023145
v -0.625998 3.726099 -0.299003
v -0.334667 3.767916 -0.241571
v -0.682041 3.923084 -0.083684
v -0.429248 3.901284 -0.082837
v -0.650760 3.591695 -0.083686
v -0.423694 3.648862 -0.082839
v -0.652773 3.763398 0.064802
v -0.349475 3.763851 0.008747
v -1.914534 3.607213 -0.080149
v -1.920392 3.683981 -0.016402
v -1.910598 3.555623 -0.016403
v -1.915294 3.607100 0.081485
v -1.176447 3.707567 -0.242905
v -1.208966 3.577277 -0.103513
v -1.209032 3.687572 0.015956
v -1.185583 3.806138 -0.103512
v -1.302026 3.698276 -0.229428
v -1.341931 3.671627 0.042179
v -1.342209 3.569080 -0.091286
v -1.319705 3.805878 -0.091285
v -1.956529 3.607213 -0.071146
v -1.958345 3.663381 0.003476
v -1.953410 3.575593 0.038012
v -1.969335 3.614026 0.072204
v -2.414391 3.523170 -0.029870
v -2.412853 3.551603 0.042450
v -2.399717 3.518843 0.041723
v -2.400266 3.526215 0.123745
v -2.061245 3.562559 0.062043
v -2.072023 3.597244 0.107135
v -2.116925 3.628131 0.019314
v -2.121167 3.584706 -0.075560
v -2.261708 3.554268 0.045980
v -2.269567 3.606429 0.034022
v -2.220337 3.571780 0.131802
v -2.268826 3.564726 -0.066178
v -1.968934 3.542065 0.116778
v -1.982700 3.580142 0.133630
v -2.033131 3.534630 0.133997
v -2.044772 3.555542 0.157967
v -2.035909 3.497063 0.210055
v -2.034062 3.511417 0.211288
v -2.052075 3.496846 0.206288
v -2.052809 3.511247 0.206691
v -1.902335 3.664200 -0.003507
v -1.894613 3.614718 -0.067891
v -1.910074 3.619976 0.049531
v -1.897784 3.590317 0.023145
vn 0.2764 0.3775 -0.8838
vn 0.9987 -0.0204 -0.0459
vn 0.5840 -0.2709 -0.7652
vn 0.0876 0.8743 0.4775
vn 0.1835 0.3992 0.8983
vn 0.0013 0.0317 0.9995
vn 0.9761 -0.2131 -0.0420
vn 0.0771 0.0093 0.9970
vn 0.0554 -0.0475 0.9973
vn 0.6184 0.1740 -0.7664
vn 0.9991 0.0423 -0.0056
vn 0.9994 0.0354 -0.0003
vn 0.5532 0.0274 -0.8326
vn 0.9785 0.2007 0.0473
vn -0.0051 0.1323 -0.9912
vn 0.0227 -0.9930 -0.1157
vn -0.0067 0.1692 -0.9856
vn 0.4673 -0.0753 0.8809
vn 0.6633 -0.1157 0.7393
vn 0.6620 0.0132 0.7493
vn 0.2549 0.3521 0.9006
vn 0.2822 0.9049 0.3187
vn 0.0130 -0.1908 -0.9815
vn 0.0905 0.4218 -0.9022
vn 0.0151 -0.9999 -0.0000
vn -0.9861 -0.1608 0.0413
vn -0.0012 0.0120 -0.9999
vn 0.2316 -0.1801 0.9560
vn 0.2769 -0.1082 0.9548
vn 0.2990 -0.0125 -0.9542
vn -0.9951 -0.0904 -0.0397
vn 0.9997 0.0127 0.0223
vn 0.1889 -0.1231 0.9742
vn -0.0705 0.4195 -0.9050
vn -0.9751 -0.2187 0.0362
vn 0.9892 0.1423 -0.0348
vn -0.0149 0.9999 0.0011
vn 0.0117 -0.9999 0.0005
vn -0.0027 0.2053 -0.9787
vn 0.9974 0.0634 0.0337
vn -0.9969 0.0768 -0.0180
vn 0.0012 -0.9989 -0.0469
vn 0.2644 0.0040 0.9644
vn -0.9999 -0.0149 0.0001
vn 0.9999 0.0149 -0.0001
vn 0.0005 -0.0360 -0.9994
vn 0.1005 -0.7048 0.7023
vn 0.0538 0.9060 0.4199
vn 0.9892 0.0209 -0.1448
vn -0.9974 0.0546 0.0478
vn -0.9923 0.0957 -0.0785
vn 0.9828 0.0330 -0.1818
vn 0.0813 0.8863 0.4560
vn 0.0014 -0.9989 -0.0468
vn -0.2764 0.3775 -0.8838
vn -0.9987 -0.0204 -0.0459
vn -0.5840 -0.2709 -0.7652
vn -0.0876 0.8743 0.4775
vn -0.1835 0.3992 0.8983
vn -0.0013 0.0317 0.9995
vn -0.9761 -0.2131 -0.0420
vn -0.0771 0.0093 0.9970
vn -0.0554 -0.0475 0.9973
vn -0.6184 0.1740 -0.7664
vn -0.9991 0.0423 -0.0056
vn -0.9994 0.0354 -0.0003
vn -0.5532 0.0274 -0.8326
vn -0.9785 0.2007 0.0473
vn 0.0051 0.1323 -0.9912
vn -0.0227 -0.9930 -0.1157
vn 0.0067 0.1692 -0.9856
vn -0.4673 -0.0753 0.8809
vn -0.6633 -0.1157 0.7393
vn -0.6620 0.0132 0.7493
vn -0.2549 0.3521 0.9006
vn -0.2822 0.9049 0.3187
vn -0.0130 -0.1908 -0.9815
vn -0.0905 0.4218 -0.9022
vn -0.0151 -0.9999 -0.0000
vn 0.9861 -0.1608 0.0413
vn 0.0012 0.0120 -0.9999
vn -0.2316 -0.1801 0.9560
vn -0.2769 -0.1082 0.9548
vn -0.2990 -0.0125 -0.9542
vn 0.9951 -0.0904 -0.0397
vn -0.9997 0.0127 0.0223
vn -0.1889 -0.1231 0.9742
vn 0.0705 0.4195 -0.9050
vn 0.9751 -0.2187 0.0362
vn -0.9892 0.1423 -0.0348
vn 0.0149 0.9999 0.0011
vn -0.0117 -0.9999 0.0005
vn 0.0027 0.2053 -0.9787
vn -0.9974 0.0634 0.0337
vn 0.9969 0.0768 -0.0180
vn -0.0012 -0.9989 -0.0469
vn -0.2644 0.0040 0.9644
vn 0.9999 -0.0149 0.0001
vn -0.9999 0.0149 -0.0001
vn -0.0005 -0.0360 -0.9994
vn -0.1005 -0.7048 0.7023
vn -0.0538 0.9060 0.4199
vn -0.9892 0.0209 -0.1448
vn 0.9974 0.0546 0.0478
vn 0.9923 0.0957 -0.0785
vn -0.9828 0.0330 -0.1818
vn -0.0813 0.8863 0.4560
vn -0.0014 -0.9989 -0.0468
vn 0.3555 -0.3314 -0.8739
vn 0.3307 0.3163 -0.8891
vn 0.5199 -0.0074 0.8542
vn 0.4210 0.1137 0.8999
vn 0.9565 -0.1377 0.2573
vn 0.9297 -0.2497 -0.2706
vn 0.9603 0.1726 0.2194
vn 0.9587 0.2142 -0.1871
vn 0.3565 -0.9266 -0.1197
vn 0.2800 0.0462 -0.9589
vn 0.4048 0.8746 -0.2669
vn 0.4028 0.8586 0.3172
vn 0.9648 0.0202 -0.2620
vn 0.9263 -0.1544 -0.3437
vn 0.5413 -0.4723 0.6956
vn 0.1912 0.3755 -0.9069
vn 0.4441 -0.1267 0.8870
vn 0.9323 0.1964 0.3036
vn 0.3437 -0.9176 0.1996
vn 0.5566 0.4405 0.7043
vn 0.5385 0.0274 0.8422
vn -0.3555 -0.3314 -0.8739
vn -0.3307 0.3163 -0.8891
vn -0.5199 -0.0074 0.8542
vn -0.4210 0.1137 0.8999
vn -0.9565 -0.1377 0.2573
vn -0.9297 -0.2497 -0.2706
vn -0.9603 0.1726 0.2194
vn -0.9587 0.2142 -0.1871
vn -0.3565 -0.9266 -0.1197
vn -0.2800 0.0462 -0.9589
vn -0.4048 0.8746 -0.2669
vn -0.4028 0.8586 0.3172
vn -0.9648 0.0202 -0.2620
vn -0.9263 -0.1544 -0.3437
vn -0.5413 -0.4723 0.6956
vn -0.1912 0.3755 -0.9069
vn -0.4441 -0.1267 0.8870
vn -0.9323 0.1964 0.3036
vn -0.3437 -0.9176 0.1996
vn -0.5566 0.4405 0.7043
vn -0.5385 0.0274 0.8422
vn -0.0420 0.7572 -0.6518
vn -0.0999 0.6473 0.7557
vn -0.1483 -0.6566 0.7395
vn -0.2163 -0.8375 -0.5017
vn 0.0622 -0.7379 -0.6720
vn 0.9971 -0.0761 -0.0047
vn 0.0522 0.7396 0.6711
vn 0.2467 0.7011 -0.6690
vn -0.1117 -0.8262 0.5522
vn -0.0111 -0.6887 0.7249
vn 0.1190 0.7519 -0.6484
vn 0.1701 0.6817 0.7116
vn -0.0043 -0.8018 -0.5976
vn -0.1603 -0.7553 0.6355
vn 0.0886 0.7955 -0.5995
vn -0.0599 0.7006 0.7111
vn 0.0189 -0.7279 -0.6855
vn -0.8249 -0.5640 0.0396
vn -0.8459 0.5301 0.0587
vn -0.3477 -0.5387 0.7674
vn 0.9782 -0.1852 0.0936
vn -0.2429 -0.9664 0.0842
vn 0.3449 0.8701 -0.3521
vn -0.2492 -0.9625 -0.1070
vn 0.2728 0.8798 0.3892
vn 0.5777 -0.8133 0.0692
vn 0.0840 0.8793 0.4689
vn -0.1088 -0.9651 -0.2381
vn 0.1696 0.8507 -0.4975
vn -0.9431 0.1789 0.2804
vn 0.0956 0.9224 0.3742
vn -0.0829 -0.9851 -0.1508
vn 0.1573 0.9062 -0.3926
vn -0.0988 -0.9321 0.3485
vn 0.9464 -0.1267 -0.2970
vn -0.0192 -0.9252 -0.3789
vn 0.0071 0.8291 0.5591
vn 0.8650 -0.4889 0.1128
vn 0.2322 -0.0463 0.9716
vn 0.0757 0.7607 0.6447
vn -0.0113 -0.8967 -0.4425
vn -0.8246 -0.0077 0.5657
vn -0.9865 0.1059 0.1251
vn 0.0750 0.7914 -0.6067
vn -0.1536 -0.9516 -0.2663
vn -0.1128 0.7794 0.6163
vn 0.0420 0.7572 -0.6518
vn 0.0999 0.6473 0.7557
vn 0.1483 -0.6566 0.7395
vn 0.2163 -0.8375 -0.5017
vn -0.0622 -0.7379 -0.6720
vn -0.9971 -0.0761 -0.0047
vn -0.0522 0.7396 0.6711
vn -0.2467 0.7011 -0.6690
vn 0.1117 -0.8262 0.5522
vn 0.0111 -0.6887 0.7249
vn -0.1190 0.7519 -0.6484
vn -0.1701 0.6817 0.7116
vn 0.0043 -0.8018 -0.5976
vn 0.1603 -0.7553 0.6355
vn -0.0886 0.7955 -0.5995
vn 0.0599 0.7006 0.7111
vn -0.0189 -0.7279 -0.6855
vn 0.8249 -0.5640 0.0396
vn 0.8459 0.5301 0.0587
vn 0.3477 -0.5387 0.7674
vn -0.9782 -0.1852 0.0936
vn 0.2429 -0.9664 0.0842
vn -0.3449 0.8701 -0.3521
vn 0.2492 -0.9625 -0.1070
vn -0.2728 0.8798 0.3892
vn -0.5777 -0.8133 0.0692
vn -0.0840 0.8793 0.4689
vn 0.1088 -0.9651 -0.2381
vn -0.1696 0.8507 -0.4975
vn 0.9431 0.1789 0.2804
vn -0.0956 0.9224 0.3742
vn 0.0829 -0.9851 -0.1508
vn -0.1573 0.9062 -0.3926
vn 0.0988 -0.9321 0.3485
vn -0.9464 -0.1267 -0.2970
vn 0.0192 -0.9252 -0.3789
vn -0.0071 0.8291 0.5591
vn -0.8650 -0.4889 0.1128
vn -0.2322 -0.0463 0.9716
vn -0.0757 0.7607 0.6447
vn 0.0113 -0.8967 -0.4425
vn 0.8246 -0.0077 0.5657
vn 0.9865 0.1059 0.1251
vn -0.0750 0.7914 -0.6067
vn 0.1537 -0.9516 -0.2662
vn 0.1128 0.7794 0.6163
vt 0.375000 0.437500
vt 0.625000 0.437500
vt 0.625000 0.500000
vt 0.375000 0.500000
vt 0.625000 0.750000
vt 0.375000 0.750000
vt 0.687500 0.500000
vt 0.750000 0.500000
vt 0.750000 0.750000
vt 0.687500 0.750000
vt 0.375000 0.812500
vt 0.625000 0.812500
vt 0.625000 0.875000
vt 0.375000 0.875000
vt 0.375000 0.375000
vt 0.250000 0.500000
vt 0.312500 0.500000
vt 0.312500 0.750000
vt 0.250000 0.750000
vt 0.625000 0.375000
vt 0.312500 0.500000
vt 0.375000 0.437500
vt 0.312500 0.500000
vt 0.375000 0.500000
vt 0.312500 0.750000
vt 0.375000 0.750000
vt 0.312500 0.750000
vt 0.000000 0.000000
vt 0.375000 0.000000
vt 0.625000 0.000000
vt 0.625000 0.250000
vt 0.375000 0.250000
vt 0.375000 1.000000
vt 0.375000 0.750000
vt 0.125000 0.500000
vt 0.125000 0.750000
vt 0.375000 0.250000
vt 0.375000 0.250000
vt 0.375000 1.000000
vt 0.125000 0.750000
vt 0.125000 0.750000
s 0
f 23/1/1 21/2/1 4/3/1 3/4/1
f 3/4/2 4/3/2 2/5/2 1/6/2
f 23/1/3 3/4/3 10/4/3 26/1/3
f 21/7/4 6/8/4 8/9/4 24/10/4
f 22/11/5 24/12/5 8/13/5 7/14/5
f 25/11/6 12/14/6 16/14/6 27/11/6
f 3/4/7 1/6/7 9/6/7 10/4/7
f 22/11/8 7/14/8 12/14/8 25/11/8
f 27/11/9 16/14/9 20/14/9 29/11/9
f 26/1/10 10/4/10 14/4/10 28/1/10
f 10/4/11 9/6/11 13/6/11 14/4/11
f 41/4/12 39/6/12 31/6/12 32/4/12
f 28/1/13 14/4/13 18/4/13 30/1/13
f 14/4/14 13/6/14 17/6/14 18/4/14
f 15/15/15 28/1/15 30/1/15 19/15/15
f 19/16/16 30/17/16 29/18/16 20/19/16
f 11/15/17 26/1/17 28/1/17 15/15/17
f 13/6/18 27/11/18 29/11/18 17/6/18
f 1/6/19 22/11/19 25/11/19 9/6/19
f 9/6/20 25/11/20 27/11/20 13/6/20
f 1/6/21 2/5/21 24/12/21 22/11/21
f 4/3/22 21/7/22 24/10/22 2/5/22
f 5/15/23 23/1/23 26/1/23 11/15/23
f 5/15/24 6/20/24 21/2/24 23/1/24
f 34/17/25 32/4/25 31/6/25 33/18/25
f 42/18/26 40/21/26 34/17/26 33/18/26
f 40/22/27 41/4/27 32/4/27 34/1/27
f 39/6/28 42/11/28 33/11/28 31/6/28
f 17/6/29 29/11/29 38/11/29 35/6/29
f 30/1/30 18/4/30 36/4/30 37/1/30
f 29/18/31 30/17/31 37/23/31 38/18/31
f 18/4/32 17/6/32 35/6/32 36/4/32
f 35/6/33 38/11/33 42/11/33 39/6/33
f 37/1/34 36/4/34 41/4/34 40/22/34
f 38/18/35 37/23/35 40/21/35 42/18/35
f 36/4/36 35/6/36 39/6/36 41/4/36
f 46/17/37 45/18/37 43/6/37 44/4/37
f 50/17/38 48/4/38 47/6/38 49/18/38
f 52/17/39 51/24/39 48/4/39 50/17/39
f 51/24/40 53/6/40 47/6/40 48/4/40
f 54/25/41 52/17/41 50/17/41 49/18/41
f 60/25/42 59/6/42 55/6/42 56/18/42
f 43/6/43 45/18/43 54/25/43 53/6/43
f 45/18/44 46/17/44 52/17/44 54/25/44
f 44/4/45 43/6/45 53/6/45 51/24/45
f 46/17/46 44/4/46 51/24/46 52/17/46
f 57/6/47 58/25/47 56/18/47 55/6/47
f 62/26/48 61/27/48 58/25/48 57/6/48
f 59/6/49 62/26/49 57/6/49 55/6/49
f 61/27/50 60/25/50 56/18/50 58/25/50
f 54/25/51 49/18/51 60/25/51 61/27/51
f 47/6/52 53/6/52 62/26/52 59/6/52
f 53/6/53 54/25/53 61/27/53 62/26/53
f 49/18/54 47/6/54 59/6/54 60/25/54
f 75/1/55 65/4/55 66/3/55 73/2/55
f 65/4/56 63/6/56 64/5/56 66/3/56
f 75/1/57 78/1/57 68/4/57 65/4/57
f 73/7/58 76/10/58 8/9/58 6/8/58
f 74/11/59 7/14/59 8/13/59 76/12/59
f 77/11/60 79/11/60 16/14/60 12/14/60
f 65/4/61 68/4/61 67/6/61 63/6/61
f 74/11/62 77/11/62 12/14/62 7/14/62
f 79/11/63 81/11/63 20/14/63 16/14/63
f 78/1/64 80/1/64 70/4/64 68/4/64
f 68/4/65 70/4/65 69/6/65 67/6/65
f 93/4/66 84/4/66 83/6/66 91/6/66
f 80/1/67 82/1/67 72/4/67 70/4/67
f 70/4/68 72/4/68 71/6/68 69/6/68
f 15/15/69 19/15/69 82/1/69 80/1/69
f 19/16/70 20/19/70 81/18/70 82/17/70
f 11/15/71 15/15/71 80/1/71 78/1/71
f 69/6/72 71/6/72 81/11/72 79/11/72
f 63/6/73 67/6/73 77/11/73 74/11/73
f 67/6/74 69/6/74 79/11/74 77/11/74
f 63/6/75 74/11/75 76/12/75 64/5/75
f 66/3/76 64/5/76 76/10/76 73/7/76
f 5/15/77 11/15/77 78/1/77 75/1/77
f 5/15/78 75/1/78 73/2/78 6/20/78
f 86/17/79 85/18/79 83/6/79 84/4/79
f 94/18/80 85/18/80 86/17/80 92/21/80
f 92/22/81 86/1/81 84/4/81 93/4/81
f 91/6/82 83/6/82 85/11/82 94/11/82
f 71/6/83 87/6/83 90/11/83 81/11/83
f 82/1/84 89/1/84 88/4/84 72/4/84
f 81/18/85 90/18/85 89/23/85 82/17/85
f 72/4/86 88/4/86 87/6/86 71/6/86
f 87/6/87 91/6/87 94/11/87 90/11/87
f 89/1/88 92/22/88 93/4/88 88/4/88
f 90/18/89 94/18/89 92/21/89 89/23/89
f 88/4/90 93/4/90 91/6/90 87/6/90
f 98/17/91 96/4/91 95/6/91 97/18/91
f 102/17/92 101/18/92 99/6/92 100/4/92
f 104/17/93 102/17/93 100/4/93 103/24/93
f 103/24/94 100/4/94 99/6/94 105/6/94
f 106/25/95 101/18/95 102/17/95 104/17/95
f 112/25/96 108/18/96 107/6/96 111/6/96
f 95/6/97 105/6/97 106/25/97 97/18/97
f 97/18/98 106/25/98 104/17/98 98/17/98
f 96/4/99 103/24/99 105/6/99 95/6/99
f 98/17/100 104/17/100 103/24/100 96/4/100
f 109/6/101 107/6/101 108/18/101 110/25/101
f 114/26/102 109/6/102 110/25/102 113/27/102
f 111/6/103 107/6/103 109/6/103 114/26/103
f 113/27/104 110/25/104 108/18/104 112/25/104
f 106/25/105 113/27/105 112/25/105 101/18/105
f 99/6/106 111/6/106 114/26/106 105/6/106
f 105/6/107 114/26/107 113/27/107 106/25/107
f 101/18/108 112/25/108 111/6/108 99/6/108
f 115/28/109 116/28/109 118/28/109 117/28/109
f 117/28/110 118/28/110 127/28/110 126/28/110
f 119/28/111 121/28/111 123/28/111 120/28/111
f 120/28/112 123/28/112 130/28/112 131/28/112
f 121/28/113 122/28/113 124/28/113 123/28/113
f 122/28/114 115/28/114 117/28/114 124/28/114
f 123/28/115 124/28/115 128/28/115 130/28/115
f 124/28/116 117/28/116 126/28/116 128/28/116
f 121/28/117 119/28/117 125/28/117 122/28/117
f 116/28/118 115/28/118 132/28/118 133/28/118
f 126/28/119 127/28/119 129/28/119 128/28/119
f 128/28/120 129/28/120 131/28/120 130/28/120
f 132/28/121 134/28/121 138/28/121 136/28/121
f 115/28/122 122/28/122 134/28/122 132/28/122
f 122/28/123 125/28/123 135/28/123 134/28/123
f 133/28/124 132/28/124 136/28/124 137/28/124
f 134/28/125 135/28/125 139/28/125 138/28/125
f 142/4/126 143/3/126 141/5/126 140/6/126
f 144/16/127 142/4/127 140/6/127 146/19/127
f 143/3/128 145/8/128 147/9/128 141/5/128
f 140/6/129 141/5/129 147/13/129 146/14/129
f 148/28/130 149/28/130 118/28/130 116/28/130
f 149/28/131 154/28/131 127/28/131 118/28/131
f 119/28/132 120/28/132 152/28/132 150/28/132
f 120/28/133 131/28/133 156/28/133 152/28/133
f 150/28/134 152/28/134 153/28/134 151/28/134
f 151/28/135 153/28/135 149/28/135 148/28/135
f 152/28/136 156/28/136 155/28/136 153/28/136
f 153/28/137 155/28/137 154/28/137 149/28/137
f 150/28/138 151/28/138 125/28/138 119/28/138
f 116/28/139 133/28/139 157/28/139 148/28/139
f 154/28/140 155/28/140 129/28/140 127/28/140
f 155/28/141 156/28/141 131/28/141 129/28/141
f 157/28/142 159/28/142 160/28/142 158/28/142
f 148/28/143 157/28/143 158/28/143 151/28/143
f 151/28/144 158/28/144 135/28/144 125/28/144
f 133/28/145 137/28/145 159/28/145 157/28/145
f 158/28/146 160/28/146 139/28/146 135/28/146
f 163/4/147 161/6/147 162/5/147 164/3/147
f 144/16/148 146/19/148 161/6/148 163/4/148
f 164/3/149 162/5/149 147/9/149 145/8/149
f 161/6/150 146/14/150 147/13/150 162/5/150
f 165/29/151 166/30/151 168/31/151 167/32/151
f 167/32/152 168/31/152 172/3/152 171/4/152
f 171/4/153 172/3/153 170/5/153 169/6/153
f 165/33/154 169/6/154 170/5/154 166/30/154
f 183/34/155 181/33/155 173/33/155 175/6/155
f 174/35/156 176/4/156 175/6/156 173/36/156
f 184/37/157 182/24/157 176/4/157 174/32/157
f 181/29/158 184/37/158 174/32/158 173/29/158
f 182/24/159 183/34/159 175/6/159 176/4/159
f 171/4/160 169/6/160 178/6/160 179/24/160
f 165/29/161 167/32/161 180/38/161 177/29/161
f 167/32/162 171/4/162 179/24/162 180/38/162
f 169/6/163 165/33/163 177/39/163 178/6/163
f 179/24/164 178/6/164 183/34/164 182/24/164
f 177/29/165 180/38/165 184/37/165 181/29/165
f 180/38/166 179/24/166 182/24/166 184/37/166
f 178/6/167 177/39/167 181/33/167 183/34/167
f 166/30/168 170/5/168 172/3/168
f 172/3/169 168/31/169 166/30/169
f 187/6/170 188/4/170 211/4/170 212/6/170
f 190/35/171 192/4/171 189/36/171
f 199/4/172 197/6/172 191/6/172 192/4/172
f 200/40/173 198/35/173 190/35/173 189/36/173
f 197/6/174 200/40/174 189/36/174 191/6/174
f 198/35/175 199/4/175 192/4/175 190/35/175
f 189/36/176 192/4/176 191/6/176
f 186/35/177 188/4/177 194/4/177 195/35/177
f 187/6/178 185/36/178 196/41/178 193/6/178
f 185/36/179 186/35/179 195/35/179 196/41/179
f 188/4/180 187/6/180 201/6/180 202/4/180
f 195/35/181 194/4/181 199/4/181 198/35/181
f 193/6/182 196/41/182 200/40/182 197/6/182
f 196/41/183 195/35/183 198/35/183 200/40/183
f 194/4/184 193/6/184 197/6/184 199/4/184
f 203/6/185 204/4/185 208/4/185 207/6/185
f 187/6/186 193/6/186 203/6/186 201/6/186
f 194/4/187 188/4/187 202/4/187 204/4/187
f 193/6/188 194/4/188 204/4/188 203/6/188
f 206/4/189 205/6/189 207/6/189 208/4/189
f 204/4/190 202/4/190 206/4/190 208/4/190
f 201/6/191 203/6/191 207/6/191 205/6/191
f 202/4/192 201/6/192 205/6/192 206/4/192
f 209/35/193 210/36/193 212/6/193 211/4/193
f 186/35/194 185/36/194 210/36/194 209/35/194
f 185/36/195 187/6/195 212/6/195 210/36/195
f 188/4/196 186/35/196 209/35/196 211/4/196
f 213/29/197 215/32/197 216/31/197 214/30/197
f 215/32/198 219/4/198 220/3/198 216/31/198
f 219/4/199 217/6/199 218/5/199 220/3/199
f 213/33/200 214/30/200 218/5/200 217/6/200
f 231/34/201 223/6/201 221/33/201 229/33/201
f 222/35/202 221/36/202 223/6/202 224/4/202
f 232/37/203 222/32/203 224/4/203 230/24/203
f 229/29/204 221/29/204 222/32/204 232/37/204
f 230/24/205 224/4/205 223/6/205 231/34/205
f 219/4/206 227/24/206 226/6/206 217/6/206
f 213/29/207 225/29/207 228/38/207 215/32/207
f 215/32/208 228/38/208 227/24/208 219/4/208
f 217/6/209 226/6/209 225/39/209 213/33/209
f 227/24/210 230/24/210 231/34/210 226/6/210
f 225/29/211 229/29/211 232/37/211 228/38/211
f 228/38/212 232/37/212 230/24/212 227/24/212
f 226/6/213 231/34/213 229/33/213 225/39/213
f 214/30/214 220/3/214 218/5/214
f 220/3/215 214/30/215 216/31/215
f 235/6/216 260/6/216 259/4/216 236/4/216
f 238/35/217 237/36/217 240/4/217
f 247/4/218 240/4/218 239/6/218 245/6/218
f 248/40/219 237/36/219 238/35/219 246/35/219
f 245/6/220 239/6/220 237/36/220 248/40/220
f 246/35/221 238/35/221 240/4/221 247/4/221
f 237/36/222 239/6/222 240/4/222
f 234/35/223 243/35/223 242/4/223 236/4/223
f 235/6/224 241/6/224 244/41/224 233/36/224
f 233/36/225 244/41/225 243/35/225 234/35/225
f 236/4/226 250/4/226 249/6/226 235/6/226
f 243/35/227 246/35/227 247/4/227 242/4/227
f 241/6/228 245/6/228 248/40/228 244/41/228
f 244/41/229 248/40/229 246/35/229 243/35/229
f 242/4/230 247/4/230 245/6/230 241/6/230
f 251/6/231 255/6/231 256/4/231 252/4/231
f 235/6/232 249/6/232 251/6/232 241/6/232
f 242/4/233 252/4/233 250/4/233 236/4/233
f 241/6/234 251/6/234 252/4/234 242/4/234
f 254/4/235 256/4/235 255/6/235 253/6/235
f 252/4/236 256/4/236 254/4/236 250/4/236
f 249/6/237 253/6/237 255/6/237 251/6/237
f 250/4/238 254/4/238 253/6/238 249/6/238
f 257/35/239 259/4/239 260/6/239 258/36/239
f 234/35/240 257/35/240 258/36/240 233/36/240
f 233/36/241 258/36/241 260/6/241 235/6/241
f 236/4/242 259/4/242 257/35/242 234/35/242
